<svg id="visual" viewBox="0 0 960 540" width="960" height="540" xmlns="http://www.w3.org/2000/svg" xmlns:xlink="http://www.w3.org/1999/xlink" version="1.1"><rect x="0" y="0" width="960" height="540" fill="#f4bd38"></rect><path d="M681 540L645 517.5C609 495 537 450 517.7 405C498.3 360 531.7 315 548.7 270C565.7 225 566.3 180 570.8 135C575.3 90 583.7 45 587.8 22.5L592 0L960 0L960 22.5C960 45 960 90 960 135C960 180 960 225 960 270C960 315 960 360 960 405C960 450 960 495 960 517.5L960 540Z" fill="#000000" stroke-linecap="round" stroke-linejoin="miter"></path></svg>